2025/06/27 19:00:07 Removing old commands...
2025/06/27 19:00:07 Bot is ready.
2025/06/27 19:00:08 Adding commands...
2025/06/27 19:00:10 Commands added.
2025/06/27 19:01:05 playSound started
2025/06/27 19:01:08 ffmpeg started
2025/06/27 19:01:08 dca started
2025/06/27 19:01:08 Reading from dca pipe
2025/06/27 19:01:08 [ffmpeg] ffmpeg version 6.1.1-3ubuntu5 Copyright (c) 2000-2023 the FFmpeg developers
2025/06/27 19:01:08 [ffmpeg]   built with gcc 13 (Ubuntu 13.2.0-23ubuntu3)
2025/06/27 19:01:08 [ffmpeg]   configuration: --prefix=/usr --extra-version=3ubuntu5 --toolchain=hardened --libdir=/usr/lib/x86_64-linux-gnu --incdir=/usr/include/x86_64-linux-gnu --arch=amd64 --enable-gpl --disable-stripping --disable-omx --enable-gnutls --enable-libaom --enable-libass --enable-libbs2b --enable-libcaca --enable-libcdio --enable-libcodec2 --enable-libdav1d --enable-libflite --enable-libfontconfig --enable-libfreetype --enable-libfribidi --enable-libglslang --enable-libgme --enable-libgsm --enable-libharfbuzz --enable-libmp3lame --enable-libmysofa --enable-libopenjpeg --enable-libopenmpt --enable-libopus --enable-librubberband --enable-libshine --enable-libsnappy --enable-libsoxr --enable-libspeex --enable-libtheora --enable-libtwolame --enable-libvidstab --enable-libvorbis --enable-libvpx --enable-libwebp --enable-libx265 --enable-libxml2 --enable-libxvid --enable-libzimg --enable-openal --enable-opencl --enable-opengl --disable-sndio --enable-libvpl --disable-libmfx --enable-libdc1394 --enable-libdrm --enable-libiec61883 --enable-chromaprint --enable-frei0r --enable-ladspa --enable-libbluray --enable-libjack --enable-libpulse --enable-librabbitmq --enable-librist --enable-libsrt --enable-libssh --enable-libsvtav1 --enable-libx264 --enable-libzmq --enable-libzvbi --enable-lv2 --enable-sdl2 --enable-libplacebo --enable-librav1e --enable-pocketsphinx --enable-librsvg --enable-libjxl --enable-shared
2025/06/27 19:01:08 [ffmpeg]   libavutil      58. 29.100 / 58. 29.100
2025/06/27 19:01:08 [ffmpeg]   libavcodec     60. 31.102 / 60. 31.102
2025/06/27 19:01:08 [ffmpeg]   libavformat    60. 16.100 / 60. 16.100
2025/06/27 19:01:08 [ffmpeg]   libavdevice    60.  3.100 / 60.  3.100
2025/06/27 19:01:08 [ffmpeg]   libavfilter     9. 12.100 /  9. 12.100
2025/06/27 19:01:08 [ffmpeg]   libswscale      7.  5.100 /  7.  5.100
2025/06/27 19:01:08 [ffmpeg]   libswresample   4. 12.100 /  4. 12.100
2025/06/27 19:01:08 [ffmpeg]   libpostproc    57.  3.100 / 57.  3.100
2025/06/27 19:01:08 [ffmpeg] Input #0, matroska,webm, from 'https://rr3---sn-hp57ynly.googlevideo.com/videoplayback?expire=1751086867&ei=syJfaLCNO5a40_wPhrGQoAs&ip=99.70.210.2&id=o-AL4WbpGqfv6ZeWeOh6IyBIyeVvoz6Mgbund02Nx97CRq&itag=251&source=youtube&requiressl=yes&xpc=EgVo2aDSNQ%3D%3D&met=1751065267%2C&mh=Ur&mm=31%2C26&mn=sn-hp57ynly%2Csn-5uaezne6&ms=au%2Conr&mv=m&mvi=3&pl=15&rms=au%2Cau&ctier=L&initcwndbps=2271250&bui=AY1jyLMbPNovJHYQ8BPghl-kW1KoiHaH01uNyRsixjU416bXduahVpiliTLmFTM2YoCU4c4MBx96f106&spc=l3OVKbCXDsv8saG61bMeq_5LP98aicEqv7RJM3O10EUS3ZwCNK6KjbiHmQzT1k8&vprv=1&svpuc=1&mime=audio%2Fwebm&ns=57K-cq3nobNCB7WNqTZqvDAQ&rqh=1&gir=yes&clen=2553276&dur=154.761&lmt=1719154390616524&mt=1751064767&fvip=4&keepalive=yes&lmw=1&c=TVHTML5&sefc=1&txp=5532434&n=aLyOF8IA9OjyGg&sparams=expire%2Cei%2Cip%2Cid%2Citag%2Csource%2Crequiressl%2Cxpc%2Cctier%2Cbui%2Cspc%2Cvprv%2Csvpuc%2Cmime%2Cns%2Crqh%2Cgir%2Cclen%2Cdur%2Clmt&lsparams=met%2Cmh%2Cmm%2Cmn%2Cms%2Cmv%2Cmvi%2Cpl%2Crms%2Cinitcwndbps&lsig=APaTxxMwRgIhAM2rlj7QL2f8_H10q4ZErqAz7wuqTsv-qkres-cnSfaNAiEA61PeNX3gsRoyqDpF45CPh3ncCMHf6BzJOCDIdDl8JAo%3D&sig=AJfQdSswRQIhALwtGWDBzsx1OUg_tXwMsx6uMNHkdmSapncIT53uG17iAiAbBV0H4ScHn7BBZRdnTFU1YyKi9IOH_tf_hRVPazoevA%3D%3D':
2025/06/27 19:01:08 [ffmpeg]   Metadata:
2025/06/27 19:01:08 [ffmpeg]     encoder         : google/video-file
2025/06/27 19:01:08 [ffmpeg]   Duration: 00:02:34.76, start: -0.007000, bitrate: 131 kb/s
2025/06/27 19:01:08 [ffmpeg]   Stream #0:0(eng): Audio: opus, 48000 Hz, stereo, fltp (default)
2025/06/27 19:01:08 [ffmpeg] Stream mapping:
2025/06/27 19:01:08 [ffmpeg]   Stream #0:0 -> #0:0 (opus (native) -> pcm_s16le (native))
2025/06/27 19:01:08 [ffmpeg] Output #0, s16le, to 'pipe:1':
2025/06/27 19:01:08 [ffmpeg]   Metadata:
2025/06/27 19:01:08 [ffmpeg]     encoder         : Lavf60.16.100
2025/06/27 19:01:08 [ffmpeg]   Stream #0:0(eng): Audio: pcm_s16le, 48000 Hz, stereo, s16, 1536 kb/s (default)
2025/06/27 19:01:08 [ffmpeg]     Metadata:
2025/06/27 19:01:08 [ffmpeg]       encoder         : Lavc60.31.102 pcm_s16le
2025/06/27 19:03:35 [ffmpeg] size=       0kB time=00:00:00.00 bitrate=   0.0kbits/s speed=N/A    size=    2054kB time=00:00:11.08 bitrate=1518.4kbits/s speed= 5.7x    size=    2421kB time=00:00:13.04 bitrate=1521.0kbits/s speed=3.31x    size=    2808kB time=00:00:15.10 bitrate=1523.1kbits/s speed=2.53x    size=    3190kB time=00:00:17.14 bitrate=1524.6kbits/s speed=2.15x    size=    3558kB time=00:00:19.10 bitrate=1525.8kbits/s speed=1.91x    size=    3944kB time=00:00:21.14 bitrate=1528.2kbits/s speed=1.76x    size=    4311kB time=00:00:23.12 bitrate=1527.6kbits/s speed=1.65x    size=    4694kB time=00:00:25.16 bitrate=1528.2kbits/s speed=1.57x    size=    5061kB time=00:00:27.12 bitrate=1528.8kbits/s speed= 1.5x    size=    5448kB time=00:00:29.18 bitrate=1529.3kbits/s speed=1.46x    size=    5815kB time=00:00:31.14 bitrate=1529.7kbits/s speed=1.41x    size=    6198kB time=00:00:33.18 bitrate=1530.1kbits/s speed=1.38x    size=    6565kB time=00:00:35.14 bitrate=1530.4kbits/s speed=1.35x    size=    6951kB time=00:00:37.20 bitrate=1530.8kbits/s speed=1.32x    size=    7334kB time=00:00:39.24 bitrate=1531.0kbits/s speed= 1.3x    size=    7701kB time=00:00:41.20 bitrate=1531.3kbits/s speed=1.28x    size=    8088kB time=00:00:43.26 bitrate=1531.5kbits/s speed=1.27x    size=    8455kB time=00:00:45.22 bitrate=1531.7kbits/s speed=1.25x    size=    8838kB time=00:00:47.26 bitrate=1531.9kbits/s speed=1.24x    size=    9205kB time=00:00:49.22 bitrate=1532.0kbits/s speed=1.23x    size=    9591kB time=00:00:51.28 bitrate=1532.2kbits/s speed=1.22x    size=    9959kB time=00:00:53.24 bitrate=1532.3kbits/s speed=1.21x    size=   10341kB time=00:00:55.28 bitrate=1532.5kbits/s speed= 1.2x    size=   10713kB time=00:00:57.24 bitrate=1533.1kbits/s speed=1.19x    size=   11095kB time=00:00:59.30 bitrate=1532.7kbits/s speed=1.18x    size=   11478kB time=00:01:01.34 bitrate=1532.8kbits/s speed=1.18x    size=   11845kB time=00:01:03.30 bitrate=1532.9kbits/s speed=1.17x    size=   12231kB time=00:01:05.36 bitrate=1533.0kbits/s speed=1.16x    size=   12614kB time=00:01:07.40 bitrate=1533.1kbits/s speed=1.16x    size=   12981kB time=00:01:09.36 bitrate=1533.2kbits/s speed=1.15x    size=   13353kB time=00:01:11.32 bitrate=1533.7kbits/s speed=1.15x    size=   13735kB time=00:01:13.38 bitrate=1533.3kbits/s speed=1.14x    size=   14118kB time=00:01:15.42 bitrate=1533.4kbits/s speed=1.14x    size=   14485kB time=00:01:17.38 bitrate=1533.5kbits/s speed=1.13x    size=   14871kB time=00:01:19.44 bitrate=1533.5kbits/s speed=1.13x    size=   15239kB time=00:01:21.40 bitrate=1533.6kbits/s speed=1.13x    size=   15621kB time=00:01:23.44 bitrate=1533.7kbits/s speed=1.12x    size=   15993kB time=00:01:25.40 bitrate=1534.1kbits/s speed=1.12x    size=   16375kB time=00:01:27.46 bitrate=1533.8kbits/s speed=1.12x    size=   16743kB time=00:01:29.42 bitrate=1533.8kbits/s speed=1.11x    size=   17125kB time=00:01:31.46 bitrate=1533.9kbits/s speed=1.11x    size=   17496kB time=00:01:33.42 bitrate=1534.2kbits/s speed=1.11x    size=   17879kB time=00:01:35.48 bitrate=1534.0kbits/s speed=1.11x    size=   18261kB time=00:01:37.52 bitrate=1534.0kbits/s speed= 1.1x    size=   18633kB time=00:01:39.48 bitrate=1534.3kbits/s speed= 1.1x    size=   19015kB time=00:01:41.54 bitrate=1534.1kbits/s speed= 1.1x    size=   19383kB time=00:01:43.50 bitrate=1534.1kbits/s speed= 1.1x    size=   19765kB time=00:01:45.54 bitrate=1534.2kbits/s speed=1.09x    size=   20136kB time=00:01:47.50 bitrate=1534.5kbits/s speed=1.09x    size=   20519kB time=00:01:49.56 bitrate=1534.2kbits/s speed=1.09x    size=   20886kB time=00:01:51.52 bitrate=1534.3kbits/s speed=1.09x    size=   21273kB time=00:01:53.56 bitrate=1534.6kbits/s speed=1.09x    size=   21655kB time=00:01:55.62 bitrate=1534.3kbits/s speed=1.09x    size=   22023kB time=00:01:57.58 bitrate=1534.3kbits/s speed=1.08x    size=   22405kB time=00:01:59.62 bitrate=1534.4kbits/s speed=1.08x    size=   22776kB time=00:02:01.58 bitrate=1534.6kbits/s speed=1.08x    size=   23159kB time=00:02:03.64 bitrate=1534.4kbits/s speed=1.08x    size=   23526kB time=00:02:05.60 bitrate=1534.4kbits/s speed=1.08x    size=   23913kB time=00:02:07.64 bitrate=1534.7kbits/s speed=1.08x    size=   24295kB time=00:02:09.70 bitrate=1534.5kbits/s speed=1.08x    size=   24663kB time=00:02:11.66 bitrate=1534.5kbits/s speed=1.07x    size=   25045kB time=00:02:13.70 bitrate=1534.5kbits/s speed=1.07x    size=   25416kB time=00:02:15.66 bitrate=1534.8kbits/s speed=1.07x    size=   25799kB time=00:02:17.72 bitrate=1534.6kbits/s speed=1.07x    size=   26166kB time=00:02:19.68 bitrate=1534.6kbits/s speed=1.07x    size=   26553kB time=00:02:21.72 bitrate=1534.8kbits/s speed=1.07x    size=   26920kB time=00:02:23.68 bitrate=1534.9kbits/s speed=1.07x    size=   27303kB time=00:02:25.74 bitrate=1534.7kbits/s speed=1.07x    size=   27685kB time=00:02:27.78 bitrate=1534.7kbits/s speed=1.07x    size=   28056kB time=00:02:29.74 bitrate=1534.9kbits/s speed=1.06x    [out#0/s16le @ 0x5a31fc78e300] video:0kB audio:29016kB subtitle:0kB other streams:0kB global headers:0kB muxing overhead: 0.000000%
2025/06/27 19:03:35 [ffmpeg] size=   29016kB time=00:02:34.74 bitrate=1536.1kbits/s speed= 1.1x    
2025/06/27 19:03:50 playSound finished
2025/06/27 19:04:23 Disconnected due to inactivity
